# xmcd
#
# Track frame offsets:
#	150
#	9149
#	25384
#	35355
#	44656
#	54687
#	64802
#	79070
#	90113
#	98359
#	113091
#	126003
#
# Disc length: 1765 seconds
#
# Revision: 1
# Processed by: cddbd v1.5.2PL0 Copyright (c) Steve Scherf et al.
# Submitted via: audiograbber 1.83.01
#
DISCID=8706e30c
DTITLE=Various Artist - Barber Shop
DYEAR=2007
DGENRE=barber shop
TTITLE0=Shine on Harvest Moon
TTITLE1=Sweet Adeline
TTITLE2=Blue Moon - Close Shave
TTITLE3=Drink to Me Only - Close Shave
TTITLE4=Joshua Fit the Battle of Jericho - Close Shave
TTITLE5=With Plenty of Money and You
TTITLE6=In the Still of the Night - Close Shave
TTITLE7=Once in a While - Close Shave
TTITLE8=My Eveline - Close Shave
TTITLE9=Ain't Misbehavin' - Close Shave
TTITLE10=It Had to Be You - Andy Williams
TTITLE11=Toot Toot Tootsie - Close Shave
EXTD=
EXTT0=
EXTT1=
EXTT2=
EXTT3=
EXTT4=
EXTT5=
EXTT6=
EXTT7=
EXTT8=
EXTT9=
EXTT10=
EXTT11=
PLAYORDER=
